<svg width="48" height="48" viewBox="0 0 48 48" fill="none" xmlns="http://www.w3.org/2000/svg">
<path d="M8.58398 47.6464H39.0528C44.629 47.6464 47.6464 44.6386 47.6464 39.121V8.53516C47.6464 3.00782 44.629 0 39.0528 0H8.58398C3.01758 0 0 2.99804 0 8.53516V39.121C0 44.6582 3.01758 47.6464 8.58398 47.6464ZM9.16016 41.8652C6.95312 41.8652 5.78124 40.7714 5.78124 38.457V9.19922C5.78124 6.89454 6.95312 5.78124 9.16016 5.78124H38.4766C40.664 5.78124 41.8652 6.89454 41.8652 9.19922V38.457C41.8652 40.7714 40.664 41.8652 38.4766 41.8652H9.16016Z" fill="url(#paint0_linear_69_72)"/>
<path d="M12.2656 18.8672H24.6484V14.9707H12.2656C11.1719 14.9707 10.293 15.8301 10.293 16.9043C10.293 18.0078 11.1719 18.8672 12.2656 18.8672ZM27.8614 22.2558C30.8008 22.2558 33.2128 19.8535 33.2128 16.8848C33.2128 13.9551 30.8008 11.5527 27.8614 11.5527C24.9316 11.5527 22.5292 13.9551 22.5292 16.8848C22.5292 19.8535 24.9316 22.2558 27.8614 22.2558ZM27.8614 19.1309C26.621 19.1309 25.6738 18.1348 25.6738 16.8848C25.6738 15.6445 26.621 14.6777 27.8614 14.6777C29.1016 14.6777 30.0782 15.6445 30.0782 16.8848C30.0782 18.1348 29.1016 19.1309 27.8614 19.1309ZM30.879 18.8672H35.4688C36.4746 18.8672 37.3536 18.0078 37.3536 16.9043C37.3536 15.8301 36.4746 14.9707 35.4688 14.9707H30.879V18.8672ZM35.371 28.4864H23.0078V32.3828H35.371C36.4844 32.3828 37.3536 31.5136 37.3536 30.459C37.3536 29.3458 36.4844 28.4864 35.371 28.4864ZM19.7754 25.0878C16.8457 25.0878 14.4336 27.5 14.4336 30.4688C14.4336 33.3984 16.8457 35.8008 19.7754 35.8008C22.7148 35.8008 25.1172 33.3984 25.1172 30.4688C25.1172 27.5 22.7148 25.0878 19.7754 25.0878ZM19.7754 28.2226C21.0156 28.2226 21.9824 29.209 21.9824 30.4688C21.9824 31.709 21.0156 32.666 19.7754 32.666C18.5352 32.666 17.5684 31.709 17.5684 30.4688C17.5684 29.209 18.5352 28.2226 19.7754 28.2226ZM16.7578 28.4864H12.1777C11.1816 28.4864 10.293 29.3458 10.293 30.459C10.293 31.5136 11.1816 32.3828 12.1777 32.3828H16.7578V28.4864Z" fill="url(#paint1_linear_69_72)"/>
<defs>
<linearGradient id="paint0_linear_69_72" x1="23.8232" y1="0" x2="23.8232" y2="47.6464" gradientUnits="userSpaceOnUse">
<stop stop-color="#FCCE04"/>
<stop offset="1" stop-color="#AB6101"/>
</linearGradient>
<linearGradient id="paint1_linear_69_72" x1="23.8232" y1="0" x2="23.8232" y2="47.6464" gradientUnits="userSpaceOnUse">
<stop stop-color="#FCCE04"/>
<stop offset="1" stop-color="#AB6101"/>
</linearGradient>
</defs>
</svg>
