<svg width="50" height="51" viewBox="0 0 50 51" fill="none" xmlns="http://www.w3.org/2000/svg">
<path d="M11.4746 50.5078H37.6074C44.0624 50.5078 49.082 45.9278 49.082 39.4434C49.082 32.9688 44.0624 28.3984 37.6074 28.3984H11.4746C5.01954 28.3984 0 32.9688 0 39.4434C0 45.9278 5.01954 50.5078 11.4746 50.5078ZM30.5274 45.371C27.1484 45.371 24.4238 42.9102 24.4238 39.4238C24.4238 35.9472 27.1484 33.496 30.5274 33.496H38.0664C41.4648 33.496 44.17 35.9472 44.17 39.4336C44.17 42.9102 41.4648 45.371 38.0664 45.371H30.5274Z" fill="url(#paint0_linear_56_729)"/>
<path d="M12.5488 24.3652H36.5332C43.7012 24.3652 49.082 19.4629 49.082 12.1875C49.082 4.9121 43.7012 0 36.5332 0H12.5488C5.38086 0 0 4.9121 0 12.1875C0 19.4629 5.38086 24.3652 12.5488 24.3652ZM12.5488 19.1699C8.48632 19.1699 5.36132 16.3574 5.36132 12.1875C5.36132 8.01758 8.48632 5.20508 12.5488 5.20508H36.5332C40.5958 5.20508 43.7304 8.02734 43.7304 12.1875C43.7304 16.3477 40.5958 19.1699 36.5332 19.1699H12.5488Z" fill="url(#paint1_linear_56_729)"/>
<path d="M12.5488 17.627H19.6875C22.793 17.627 25.293 15.3711 25.293 12.1875C25.293 8.99414 22.793 6.72852 19.6875 6.72852H12.5488C9.44336 6.72852 6.95312 8.99414 6.95312 12.168C6.95312 15.3711 9.44336 17.627 12.5488 17.627Z" fill="url(#paint2_linear_56_729)"/>
<defs>
<linearGradient id="paint0_linear_56_729" x1="24.541" y1="0" x2="24.541" y2="50.5078" gradientUnits="userSpaceOnUse">
<stop stop-color="#FCCE04"/>
<stop offset="1" stop-color="#AB6101"/>
</linearGradient>
<linearGradient id="paint1_linear_56_729" x1="24.541" y1="0" x2="24.541" y2="50.5078" gradientUnits="userSpaceOnUse">
<stop stop-color="#FCCE04"/>
<stop offset="1" stop-color="#AB6101"/>
</linearGradient>
<linearGradient id="paint2_linear_56_729" x1="24.541" y1="0" x2="24.541" y2="50.5078" gradientUnits="userSpaceOnUse">
<stop stop-color="#FCCE04"/>
<stop offset="1" stop-color="#AB6101"/>
</linearGradient>
</defs>
</svg>
