<svg width="60" height="48" viewBox="0 0 60 48" fill="none" xmlns="http://www.w3.org/2000/svg">
<path d="M2.98828 10.0293V14.3555H56.9336V10.0293H2.98828ZM10.9766 47.6367H49.2968C55.9472 47.6367 59.9218 43.5547 59.9218 36.6699V10.9668C59.9218 4.08203 55.9472 0 49.2968 0H10.9766C4.08204 0 0 4.08203 0 10.9668V36.6699C0 43.5547 4.08204 47.6367 10.9766 47.6367ZM11.5234 41.8653C7.91992 41.8653 5.78124 39.7265 5.78124 36.1133V11.5137C5.78124 7.91015 7.91992 5.77149 11.5234 5.77149H48.3984C52.002 5.77149 54.1308 7.91015 54.1308 11.5137V36.1133C54.1308 39.7265 52.002 41.8653 48.3984 41.8653H11.5234Z" fill="url(#paint0_linear_56_604)"/>
<defs>
<linearGradient id="paint0_linear_56_604" x1="29.9609" y1="0" x2="29.9609" y2="47.6367" gradientUnits="userSpaceOnUse">
<stop stop-color="#FCCE04"/>
<stop offset="1" stop-color="#AB6101"/>
</linearGradient>
</defs>
</svg>
