<svg width="63" height="42" viewBox="0 0 63 42" fill="none" xmlns="http://www.w3.org/2000/svg">
<path d="M13.1348 41.6114H46.5332C55.4296 41.6114 62.334 34.8632 62.334 26.1914C62.334 17.4316 55.42 10.7129 46.0058 10.7129C42.5488 3.92578 36.377 0 28.4766 0C18.4082 0 9.99999 7.49024 8.79883 17.793C3.45703 19.4727 0 23.9062 0 29.4434C0 36.3086 5.09765 41.6114 13.1348 41.6114ZM13.2324 36.3086C8.26171 36.3086 5.30273 33.6426 5.30273 29.5704C5.30273 26.0156 7.60741 23.496 11.8164 22.3926C13.2324 22.0312 13.7109 21.4454 13.8965 19.873C14.8145 11.2402 20.7812 5.3125 28.4766 5.3125C34.3164 5.3125 38.9454 8.62304 41.8458 14.3359C42.5 15.6055 43.2128 16.0254 44.7754 16.0254C52.5 16.0254 57.0118 20.3906 57.0118 26.3282C57.0118 31.9922 52.539 36.3086 46.5626 36.3086H13.2324Z" fill="url(#paint0_linear_71_111)"/>
<defs>
<linearGradient id="paint0_linear_71_111" x1="31.167" y1="0" x2="31.167" y2="41.6114" gradientUnits="userSpaceOnUse">
<stop stop-color="#FCCE04"/>
<stop offset="1" stop-color="#AB6101"/>
</linearGradient>
</defs>
</svg>
