<svg width="64" height="59" viewBox="0 0 64 59" fill="none" xmlns="http://www.w3.org/2000/svg">
<path d="M12.3795 10.7803H26.7822C27.7168 10.7803 28.4585 9.98071 28.4585 9.01732C28.4585 8.03468 27.7168 7.2447 26.7822 7.2447H12.3795C11.4258 7.2447 10.6744 8.03468 10.6744 9.01732C10.6744 9.98071 11.4258 10.7803 12.3795 10.7803ZM1.66667 23.4778H20.2024C21.1465 23.4778 21.8978 22.6781 21.8978 21.7149C21.8978 20.7321 21.1465 19.9421 20.2024 19.9421H1.66667C0.732177 19.9421 0 20.7515 0 21.7149C0 22.6686 0.732177 23.4778 1.66667 23.4778ZM10.289 36.1848H20.4334C21.3777 36.1848 22.1194 35.3854 22.1194 34.4123C22.1194 33.4297 21.368 32.6397 20.4334 32.6397H10.289C9.34488 32.6397 8.59344 33.4392 8.59344 34.4123C8.59344 35.3854 9.34488 36.1848 10.289 36.1848ZM2.85163 48.7956H17.0424C17.9769 48.7956 18.7187 48.0058 18.7187 47.023C18.7187 46.0499 17.9672 45.2505 17.0424 45.2505H2.85163C1.88824 45.2505 1.14643 46.0596 1.14643 47.023C1.14643 48.0058 1.88824 48.7956 2.85163 48.7956Z" fill="url(#paint0_linear_71_286)"/>
<path d="M32.3988 57.6493L40.3949 48.1212C41.2139 47.158 41.3198 46.9074 41.6473 45.944L42.1195 44.5374L37.5626 38.8245L36.3198 44.6242L28.4488 53.9594C25.7418 57.1482 30.1541 60.3082 32.3988 57.6493ZM51.5991 56.8303C53.3428 60.366 58.5934 58.1791 56.6956 54.3447L51.2715 43.3236C50.8765 42.5048 50.2986 41.628 49.7494 40.8477L46.3583 36.0307L46.5606 35.4045C47.447 32.6107 47.8418 30.9344 48.0249 28.2081L48.574 20.5009C48.8439 16.657 46.5511 13.8439 42.7455 13.8439C39.8748 13.8439 37.9191 15.3372 35.3179 17.8612L31.2235 21.869C29.894 23.1696 29.4219 24.2968 29.2775 26.0982L28.7957 32.4085C28.6609 34.0944 29.6338 35.3082 31.2041 35.3564C32.8035 35.4816 33.786 34.5086 33.9307 32.7263L34.5279 25.8862L36.291 24.3063C36.8882 23.7668 37.7457 24.0944 37.6782 24.8072L37.2542 30.3853C37.0326 33.2948 37.6879 34.7688 39.8073 37.418L45.1927 44.1811C45.7128 44.8361 45.7899 45.0674 46.0115 45.5299L51.5991 56.8303ZM61.021 24.2774H54.9613L51.2234 20.1637L50.7803 27.0809L51.9556 28.2466C52.8805 29.1232 53.6512 29.4412 55.289 29.4412H61.021C62.7457 29.4412 63.892 28.4297 63.892 26.8497C63.892 25.2987 62.7263 24.2774 61.021 24.2774ZM45.9152 11.5318C49.1137 11.5318 51.6762 8.94989 51.6762 5.76107C51.6762 2.57225 49.1137 0 45.9152 0C42.7361 0 40.1445 2.57225 40.1445 5.76107C40.1445 8.94989 42.7361 11.5318 45.9152 11.5318Z" fill="url(#paint1_linear_71_286)"/>
<defs>
<linearGradient id="paint0_linear_71_286" x1="31.946" y1="0" x2="31.946" y2="58.6451" gradientUnits="userSpaceOnUse">
<stop stop-color="#FCCE04"/>
<stop offset="1" stop-color="#AB6101"/>
</linearGradient>
<linearGradient id="paint1_linear_71_286" x1="31.946" y1="0" x2="31.946" y2="58.6451" gradientUnits="userSpaceOnUse">
<stop stop-color="#FCCE04"/>
<stop offset="1" stop-color="#AB6101"/>
</linearGradient>
</defs>
</svg>
