<svg width="60" height="48" viewBox="0 0 60 48" fill="none" xmlns="http://www.w3.org/2000/svg">
<path d="M10.9766 47.6367H49.2968C55.9472 47.6367 59.9218 43.5547 59.9218 36.6699V10.9668C59.9218 4.08203 55.9472 0 49.2968 0H10.9766C4.08204 0 0 4.08203 0 10.9668V36.6699C0 43.5547 4.08204 47.6367 10.9766 47.6367ZM11.5234 41.8653C7.91992 41.8653 5.78124 39.7265 5.78124 36.1133V11.5137C5.78124 7.91015 7.91992 5.77149 11.5234 5.77149H48.3984C52.002 5.77149 54.1308 7.91015 54.1308 11.5137V36.1133C54.1308 39.7265 52.002 41.8653 48.3984 41.8653H11.5234Z" fill="url(#paint0_linear_71_283)"/>
<path d="M46.9922 35.3125C49.0332 35.3125 50.3808 33.9453 50.3808 31.8945C50.3808 29.9023 49.0332 28.5645 46.9922 28.5645H45.9376V26.1035H46.9922C49.0332 26.1035 50.3808 24.7755 50.3808 22.7833C50.3808 20.7617 49.0332 19.3848 46.9922 19.3848C44.9708 19.3848 43.6524 20.7617 43.6524 22.7833V23.8183H41.2696V22.7833C41.2696 20.7617 39.9414 19.3848 37.9102 19.3848C35.879 19.3848 34.5214 20.7617 34.5214 22.7833C34.5214 24.7755 35.879 26.1035 37.9102 26.1035H38.9454V28.5645H37.9102C35.879 28.5645 34.5214 29.9023 34.5214 31.8945C34.5214 33.9453 35.879 35.3125 37.9102 35.3125C39.9414 35.3125 41.2696 33.9453 41.2696 31.8945V30.8595H43.6524V31.8945C43.6524 33.9453 44.9708 35.3125 46.9922 35.3125ZM45.9376 30.8399H46.9922C47.666 30.8399 48.086 31.2695 48.086 31.8945C48.086 32.5587 47.666 33.0079 46.9922 33.0079C46.3574 33.0079 45.9376 32.5587 45.9376 31.8945V30.8399ZM38.9454 30.8399V31.8945C38.9454 32.5293 38.5156 33.0079 37.9102 33.0079C37.246 33.0079 36.8262 32.5587 36.8262 31.8945C36.8262 31.2695 37.246 30.8399 37.9102 30.8399H38.9454ZM43.6524 28.6035H41.2696V26.1035H43.6524V28.6035ZM45.9376 23.8379V22.7833C45.9376 22.1095 46.3574 21.6895 46.9922 21.6895C47.666 21.6895 48.086 22.1095 48.086 22.7833C48.086 23.4181 47.666 23.8379 46.9922 23.8379H45.9376ZM38.9454 23.8379H37.9102C37.246 23.8379 36.8262 23.4181 36.8262 22.7833C36.8262 22.1095 37.246 21.6895 37.9102 21.6895C38.5254 21.6895 38.9454 22.1095 38.9454 22.7833V23.8379ZM10.7227 21.3379C10.7227 22.2851 11.4844 23.0469 12.4023 23.0469H27.2168C28.1348 23.0469 28.8964 22.2851 28.8964 21.3379C28.8964 20.3907 28.1348 19.6289 27.2168 19.6289H12.4023C11.4844 19.6289 10.7227 20.3907 10.7227 21.3379ZM10.7227 27.3535C10.7227 28.2911 11.4844 29.0527 12.4023 29.0527H27.2168C28.1348 29.0527 28.8964 28.2911 28.8964 27.3535C28.8964 26.4259 28.1348 25.6641 27.2168 25.6641H12.4023C11.4844 25.6641 10.7227 26.4259 10.7227 27.3535ZM10.7227 33.3789C10.7227 34.3263 11.4844 35.0879 12.4023 35.0879H27.2168C28.1348 35.0879 28.8964 34.3263 28.8964 33.3789C28.8964 32.4317 28.1348 31.6699 27.2168 31.6699H12.4023C11.4844 31.6699 10.7227 32.4317 10.7227 33.3789ZM12.5684 14.8047C13.8867 14.8047 14.9609 13.6914 14.9609 12.3926C14.9609 11.1035 13.8867 9.99023 12.5684 9.99023C11.2305 9.99023 10.1562 11.1035 10.1562 12.3926C10.1562 13.6914 11.2305 14.8047 12.5684 14.8047ZM20.0878 14.8047C21.4062 14.8047 22.4804 13.7012 22.4804 12.3926C22.4804 11.1035 21.4062 9.99023 20.0878 9.99023C18.75 9.99023 17.666 11.1035 17.666 12.3926C17.666 13.7012 18.75 14.8047 20.0878 14.8047ZM27.6074 14.7949C28.9258 14.7949 30 13.7012 30 12.3926C30 11.1035 28.9258 9.99023 27.6074 9.99023C26.2696 9.99023 25.1856 11.1035 25.1856 12.3926C25.1856 13.7012 26.2696 14.7949 27.6074 14.7949Z" fill="url(#paint1_linear_71_283)"/>
<defs>
<linearGradient id="paint0_linear_71_283" x1="29.9609" y1="0" x2="29.9609" y2="47.6367" gradientUnits="userSpaceOnUse">
<stop stop-color="#FCCE04"/>
<stop offset="1" stop-color="#AB6101"/>
</linearGradient>
<linearGradient id="paint1_linear_71_283" x1="29.9609" y1="0" x2="29.9609" y2="47.6367" gradientUnits="userSpaceOnUse">
<stop stop-color="#FCCE04"/>
<stop offset="1" stop-color="#AB6101"/>
</linearGradient>
</defs>
</svg>
