<svg width="61" height="59" viewBox="0 0 61 59" fill="none" xmlns="http://www.w3.org/2000/svg">
<path d="M52.4249 0C56.7627 0 60.3118 3.54912 60.3118 7.88693V39.4346C60.3118 42.8805 58.072 45.828 54.9765 46.8948V13.9181C54.9765 8.43047 50.4895 3.94346 45.0019 3.94346H14.0545C15.4234 1.59066 17.9734 8.0777e-08 20.8772 0H52.4249Z" fill="url(#paint0_linear_70_103)"/>
<path fill-rule="evenodd" clip-rule="evenodd" d="M8.8148 6.03118H44.074C48.9222 6.03118 52.8888 9.99784 52.8888 14.846V50.1052C52.8888 54.9533 48.9222 58.92 44.074 58.92H8.8148C3.96666 58.92 0 54.9533 0 50.1052V14.846C0 9.99784 3.96666 6.03118 8.8148 6.03118ZM21.5963 10.4386C20.3776 10.4386 19.3926 11.4236 19.3926 12.6423C19.3926 13.8609 20.3776 14.846 21.5963 14.846C22.8149 14.846 23.8 13.8609 23.8 12.6423C23.8 11.4236 22.8149 10.4386 21.5963 10.4386ZM26.4444 47.02C18.4232 47.02 11.9 40.4968 11.9 32.4756C11.9 24.4543 18.4232 17.9312 26.4444 17.9312C34.4657 17.9312 40.9888 24.4543 40.9888 32.4756C40.9888 40.4968 34.4657 47.02 26.4444 47.02ZM26.4444 21.0163C32.7728 21.0163 37.9036 26.1472 37.9036 32.4756C37.9036 38.804 32.7728 43.9348 26.4444 43.9348C20.116 43.9348 14.9852 38.804 14.9852 32.4756C14.9852 26.1472 20.116 21.0163 26.4444 21.0163ZM31.2925 10.4386C32.5112 10.4386 33.4963 11.4236 33.4963 12.6423C33.4963 13.8609 32.5112 14.846 31.2925 14.846C30.0739 14.846 29.0889 13.8609 29.0889 12.6423C29.0889 11.4236 30.0739 10.4386 31.2925 10.4386Z" fill="url(#paint1_linear_70_103)"/>
<defs>
<linearGradient id="paint0_linear_70_103" x1="30.1559" y1="0" x2="30.1559" y2="58.92" gradientUnits="userSpaceOnUse">
<stop stop-color="#FCCE04"/>
<stop offset="1" stop-color="#AB6101"/>
</linearGradient>
<linearGradient id="paint1_linear_70_103" x1="30.1559" y1="0" x2="30.1559" y2="58.92" gradientUnits="userSpaceOnUse">
<stop stop-color="#FCCE04"/>
<stop offset="1" stop-color="#AB6101"/>
</linearGradient>
</defs>
</svg>
