<svg width="53" height="56" viewBox="0 0 53 56" fill="none" xmlns="http://www.w3.org/2000/svg">
<path d="M49.3946 34.043C51.5528 35.3026 52.627 36.4746 52.627 38.291C52.627 40.0976 51.5528 41.2599 49.3946 42.5293L29.8632 53.8378C28.4668 54.6484 27.4218 55.0587 26.3086 55.0587C25.2148 55.0587 24.1602 54.6484 22.754 53.8378L3.23242 42.5293C1.06445 41.2599 0 40.0976 0 38.291C0 36.4746 1.06445 35.3026 3.23242 34.043L14.4682 27.5343L20.15 30.8255L7.4707 38.0177C7.35352 38.0859 7.28516 38.1542 7.28516 38.291C7.28516 38.4082 7.35352 38.4862 7.4707 38.5546L25.4102 48.7304C25.7618 48.9258 26.0156 49.0234 26.3086 49.0234C26.6114 49.0234 26.8554 48.9258 27.207 48.7304L45.1464 38.5546C45.2734 38.4862 45.332 38.4082 45.332 38.291C45.332 38.1542 45.2734 38.0859 45.1464 38.0177L32.4678 30.8258L38.153 27.5343L49.3946 34.043Z" fill="url(#paint0_linear_56_701)"/>
<path d="M26.3086 33.5644C27.4218 33.5644 28.4668 33.1444 29.8632 32.334L49.3946 21.0254C51.5528 19.7558 52.627 18.5937 52.627 16.7871C52.627 14.9707 51.5528 13.8086 49.3946 12.5391L29.8632 1.23047C28.4668 0.429688 27.4218 0 26.3086 0C25.2148 0 24.1602 0.429688 22.754 1.23047L3.23242 12.5391C1.06445 13.8086 0 14.9707 0 16.7871C0 18.5937 1.06445 19.7558 3.23242 21.0254L22.754 32.334C24.1602 33.1444 25.2148 33.5644 26.3086 33.5644ZM26.3086 27.5194C26.0156 27.5194 25.7618 27.4219 25.4102 27.2267L7.4707 17.0508C7.35352 16.9824 7.28516 16.9043 7.28516 16.7871C7.28516 16.6601 7.35352 16.582 7.4707 16.5234L25.4102 6.33789C25.7618 6.15235 26.0156 6.05469 26.3086 6.05469C26.6114 6.05469 26.8554 6.15235 27.207 6.33789L45.1464 16.5234C45.2734 16.582 45.332 16.6601 45.332 16.7871C45.332 16.9043 45.2734 16.9824 45.1464 17.0508L27.207 27.2267C26.8554 27.4219 26.6114 27.5194 26.3086 27.5194Z" fill="url(#paint1_linear_56_701)"/>
<defs>
<linearGradient id="paint0_linear_56_701" x1="26.3135" y1="0" x2="26.3135" y2="55.0587" gradientUnits="userSpaceOnUse">
<stop stop-color="#FCCE04"/>
<stop offset="1" stop-color="#AB6101"/>
</linearGradient>
<linearGradient id="paint1_linear_56_701" x1="26.3135" y1="0" x2="26.3135" y2="55.0587" gradientUnits="userSpaceOnUse">
<stop stop-color="#FCCE04"/>
<stop offset="1" stop-color="#AB6101"/>
</linearGradient>
</defs>
</svg>
