<svg width="65" height="54" viewBox="0 0 65 54" fill="none" xmlns="http://www.w3.org/2000/svg">
<path d="M34.2382 53.5546C45.9082 53.5546 53.7208 49.3848 53.7208 43.1738C53.7208 37.8614 49.5508 36.8848 49.5508 33.7792C49.5508 29.4824 64.1992 29.082 64.1992 18.0762C64.1992 7.19726 52.9394 0 36.1328 0C14.5117 0 0 11.1133 0 27.168C0 42.9688 13.7793 53.5546 34.2382 53.5546ZM34.2382 47.334C17.373 47.334 6.21094 39.2578 6.21094 27.168C6.21094 14.5898 18.1055 6.21094 36.1328 6.21094C49.2968 6.21094 57.9882 10.9863 57.9882 18.0762C57.9882 26.4062 43.291 25.7422 43.291 33.3398C43.291 37.7636 47.4122 38.7402 47.4122 42.0312C47.4122 45.2442 42.207 47.334 34.2382 47.334ZM31.9726 41.709C36.1622 41.709 39.3262 38.545 39.3262 34.375C39.3262 30.3516 36.0352 27.0508 31.9726 27.0508C27.9492 27.0508 24.6582 30.3516 24.6582 34.375C24.6582 38.4082 27.9492 41.709 31.9726 41.709ZM31.9726 38.1054C29.9122 38.1054 28.2422 36.4454 28.2422 34.3652C28.2422 32.0606 30 30.6836 31.914 30.664C33.8868 30.6348 35.7128 32.002 35.7128 34.3652C35.7128 36.4454 34.0722 38.1054 31.9726 38.1054Z" fill="url(#paint0_linear_69_63)"/>
<path d="M14.8242 30.4102C17.0605 30.4102 18.877 28.5352 18.877 26.2988C18.877 24.043 17.0703 22.2364 14.8242 22.2364C12.5684 22.2364 10.7324 24.0528 10.7324 26.2988C10.7324 28.5352 12.5781 30.4102 14.8242 30.4102Z" fill="url(#paint1_linear_69_63)"/>
<path d="M23.7208 22.5878C26.5234 22.5878 28.8282 20.3418 28.8282 17.4609C28.8282 14.6387 26.5136 12.4023 23.7208 12.4023C20.8594 12.4023 18.5547 14.6387 18.5547 17.4609C18.5547 20.3418 20.8594 22.5878 23.7208 22.5878Z" fill="url(#paint2_linear_69_63)"/>
<path d="M36.084 18.6523C38.379 18.6523 40.205 16.8164 40.205 14.5312C40.205 12.2461 38.379 10.4102 36.084 10.4102C33.8282 10.4102 31.9336 12.2461 31.9336 14.5312C31.9336 16.8164 33.8282 18.6523 36.084 18.6523Z" fill="url(#paint3_linear_69_63)"/>
<path d="M47.2266 20.205C49.0624 20.205 50.5468 18.7402 50.5468 16.8652C50.5468 15.0195 49.0528 13.5254 47.2266 13.5254C45.3516 13.5254 43.8476 15.0195 43.8476 16.8652C43.8476 18.7402 45.3516 20.205 47.2266 20.205Z" fill="url(#paint4_linear_69_63)"/>
<defs>
<linearGradient id="paint0_linear_69_63" x1="32.0996" y1="0" x2="32.0996" y2="53.5546" gradientUnits="userSpaceOnUse">
<stop stop-color="#FCCE04"/>
<stop offset="1" stop-color="#AB6101"/>
</linearGradient>
<linearGradient id="paint1_linear_69_63" x1="32.0996" y1="0" x2="32.0996" y2="53.5546" gradientUnits="userSpaceOnUse">
<stop stop-color="#FCCE04"/>
<stop offset="1" stop-color="#AB6101"/>
</linearGradient>
<linearGradient id="paint2_linear_69_63" x1="32.0996" y1="0" x2="32.0996" y2="53.5546" gradientUnits="userSpaceOnUse">
<stop stop-color="#FCCE04"/>
<stop offset="1" stop-color="#AB6101"/>
</linearGradient>
<linearGradient id="paint3_linear_69_63" x1="32.0996" y1="0" x2="32.0996" y2="53.5546" gradientUnits="userSpaceOnUse">
<stop stop-color="#FCCE04"/>
<stop offset="1" stop-color="#AB6101"/>
</linearGradient>
<linearGradient id="paint4_linear_69_63" x1="32.0996" y1="0" x2="32.0996" y2="53.5546" gradientUnits="userSpaceOnUse">
<stop stop-color="#FCCE04"/>
<stop offset="1" stop-color="#AB6101"/>
</linearGradient>
</defs>
</svg>
