<svg width="65" height="42" viewBox="0 0 65 42" fill="none" xmlns="http://www.w3.org/2000/svg">
<path d="M8.58395 41.709H56.3184C61.8848 41.709 64.8926 38.7012 64.8926 33.1738V8.53516C64.8926 2.99804 61.8848 0 56.3184 0H8.58395C2.99801 0 -3.05176e-05 2.98828 -3.05176e-05 8.53516V33.1738C-3.05176e-05 38.711 2.99801 41.709 8.58395 41.709ZM9.16013 35.9376C6.95309 35.9376 5.78121 34.8242 5.78121 32.5196V9.18946C5.78121 6.88476 6.95309 5.78124 9.16013 5.78124H55.7324C57.92 5.78124 59.121 6.88476 59.121 9.18946V32.5196C59.121 34.8242 57.92 35.9376 55.7324 35.9376H9.16013ZM11.748 15.3027H14.0429C14.8046 15.3027 15.2539 14.8535 15.2539 14.082V11.7871C15.2539 11.0156 14.8046 10.5566 14.0429 10.5566H11.748C10.9863 10.5566 10.5273 11.0156 10.5273 11.7871V14.082C10.5273 14.8535 10.9863 15.3027 11.748 15.3027ZM19.5507 15.3027H21.836C22.6074 15.3027 23.0664 14.8535 23.0664 14.082V11.7871C23.0664 11.0156 22.6074 10.5566 21.836 10.5566H19.5507C18.7793 10.5566 18.33 11.0156 18.33 11.7871V14.082C18.33 14.8535 18.7793 15.3027 19.5507 15.3027ZM27.3536 15.3027H29.6386C30.4102 15.3027 30.8692 14.8535 30.8692 14.082V11.7871C30.8692 11.0156 30.4102 10.5566 29.6386 10.5566H27.3536C26.582 10.5566 26.1328 11.0156 26.1328 11.7871V14.082C26.1328 14.8535 26.582 15.3027 27.3536 15.3027ZM35.1562 15.3027H37.4414C38.2128 15.3027 38.6718 14.8535 38.6718 14.082V11.7871C38.6718 11.0156 38.2128 10.5566 37.4414 10.5566H35.1562C34.3848 10.5566 33.9356 11.0156 33.9356 11.7871V14.082C33.9356 14.8535 34.3848 15.3027 35.1562 15.3027ZM43.0762 15.3027H45.2442C46.0254 15.3027 46.4746 14.8535 46.4746 14.082V11.7871C46.4746 11.0156 46.0254 10.5566 45.2442 10.5566H43.0762C42.2364 10.5566 41.7382 11.0156 41.7382 11.7871V14.082C41.7382 14.8535 42.2364 15.3027 43.0762 15.3027ZM50.7618 15.3027H53.0468C53.8282 15.3027 54.2774 14.8535 54.2774 14.082V11.7871C54.2774 11.0156 53.8282 10.5566 53.0468 10.5566H50.7618C49.9902 10.5566 49.541 11.0156 49.541 11.7871V14.082C49.541 14.8535 49.9902 15.3027 50.7618 15.3027ZM11.748 23.2226H14.0429C14.8046 23.2226 15.2539 22.7734 15.2539 22.002V19.6973C15.2539 18.9355 14.8046 18.4863 14.0429 18.4863H11.748C10.9863 18.4863 10.5273 18.9355 10.5273 19.6973V22.002C10.5273 22.7734 10.9863 23.2226 11.748 23.2226ZM19.5507 23.2226H21.836C22.6074 23.2226 23.0664 22.7734 23.0664 22.002V19.6973C23.0664 18.9355 22.6074 18.4863 21.836 18.4863H19.5507C18.7793 18.4863 18.33 18.9355 18.33 19.6973V22.002C18.33 22.7734 18.7793 23.2226 19.5507 23.2226ZM27.3536 23.2226H29.6386C30.4102 23.2226 30.8692 22.7734 30.8692 22.002V19.6973C30.8692 18.9355 30.4102 18.4863 29.6386 18.4863H27.3536C26.582 18.4863 26.1328 18.9355 26.1328 19.6973V22.002C26.1328 22.7734 26.582 23.2226 27.3536 23.2226ZM35.1562 23.2226H37.4414C38.2128 23.2226 38.6718 22.7734 38.6718 22.002V19.6973C38.6718 18.9355 38.2128 18.4863 37.4414 18.4863H35.1562C34.3848 18.4863 33.9356 18.9355 33.9356 19.6973V22.002C33.9356 22.7734 34.3848 23.2226 35.1562 23.2226ZM43.0762 23.2226H45.2442C46.0254 23.2226 46.4746 22.7734 46.4746 22.002V19.6973C46.4746 18.9355 46.0254 18.4863 45.2442 18.4863H43.0762C42.2364 18.4863 41.7382 18.9355 41.7382 19.6973V22.002C41.7382 22.7734 42.2364 23.2226 43.0762 23.2226ZM50.7618 23.2226H53.0468C53.8282 23.2226 54.2774 22.7734 54.2774 22.002V19.6973C54.2774 18.9355 53.8282 18.4863 53.0468 18.4863H50.7618C49.9902 18.4863 49.541 18.9355 49.541 19.6973V22.002C49.541 22.7734 49.9902 23.2226 50.7618 23.2226ZM11.748 31.1524H14.0429C14.8046 31.1524 15.2539 30.6934 15.2539 29.9218V27.6172C15.2539 26.8554 14.8046 26.4062 14.0429 26.4062H11.748C10.9863 26.4062 10.5273 26.8554 10.5273 27.6172V29.9218C10.5273 30.6934 10.9863 31.1524 11.748 31.1524ZM19.6875 31.1524H45.1074C45.9668 31.1524 46.4746 30.6446 46.4746 29.7852V27.7636C46.4746 26.8946 45.9668 26.4062 45.1074 26.4062H19.6875C18.8281 26.4062 18.33 26.8946 18.33 27.7636V29.7852C18.33 30.6446 18.8281 31.1524 19.6875 31.1524ZM50.7618 31.1524H53.0468C53.8282 31.1524 54.2774 30.6934 54.2774 29.9218V27.6172C54.2774 26.8554 53.8282 26.4062 53.0468 26.4062H50.7618C49.9902 26.4062 49.541 26.8554 49.541 27.6172V29.9218C49.541 30.6934 49.9902 31.1524 50.7618 31.1524Z" fill="url(#paint0_linear_71_285)"/>
<defs>
<linearGradient id="paint0_linear_71_285" x1="32.4463" y1="0" x2="32.4463" y2="41.709" gradientUnits="userSpaceOnUse">
<stop stop-color="#FCCE04"/>
<stop offset="1" stop-color="#AB6101"/>
</linearGradient>
</defs>
</svg>
