<svg width="48" height="48" viewBox="0 0 48 48" fill="none" xmlns="http://www.w3.org/2000/svg">
<path fill-rule="evenodd" clip-rule="evenodd" d="M8 0H40C44.418 0 48 3.582 48 8V40C48 44.418 44.418 48 40 48H8C3.582 48 0 44.418 0 40V8C0 3.582 3.582 0 8 0ZM10 4C6.686 4 4 6.686 4 10V38C4 41.314 6.686 44 10 44H38C41.314 44 44 41.314 44 38V10C44 6.686 41.314 4 38 4H10ZM12 8H22V40H12C9.792 40 8 38.208 8 36V12C8 9.792 9.792 8 12 8ZM36 8C38.208 8 40 9.792 40 12V36C40 38.208 38.208 40 36 40H26V8H36Z" fill="url(#paint0_linear_69_58)"/>
<defs>
<linearGradient id="paint0_linear_69_58" x1="24" y1="0" x2="24" y2="48" gradientUnits="userSpaceOnUse">
<stop stop-color="#FCCE04"/>
<stop offset="1" stop-color="#AB6101"/>
</linearGradient>
</defs>
</svg>
