<svg preserveAspectRatio="none" width="100%" height="100%" overflow="visible" style="display: block;" viewBox="0 0 6.99068 9.19646" fill="none" xmlns="http://www.w3.org/2000/svg">
<path id="Shape" fill-rule="evenodd" clip-rule="evenodd" d="M1.88799 0C2.72483 0 3.30824 0.323581 3.49534 0.485372C3.68243 0.323581 4.26584 0 5.10268 0C6.14873 0 6.99068 0.996289 6.99068 2.14585C6.99068 3.171 6.46315 3.99299 6.2404 4.34008L6.24038 4.34009C6.21335 4.38221 6.19081 4.41733 6.17425 4.44498C6.02117 4.70044 5.30679 5.9011 5.1282 6.56529C5.12122 6.59127 5.1144 6.61798 5.10753 6.64493L5.10751 6.64494V6.64494V6.64496C5.07382 6.777 5.03868 6.91471 4.97512 6.99957C4.89858 7.10175 4.82204 7.15284 4.66896 7.15284H3.59739H3.39329H2.32172C2.16864 7.15284 2.0921 7.10175 2.01556 6.99957C1.952 6.91471 1.91685 6.777 1.88316 6.64496V6.64494V6.64494V6.64493C1.87628 6.61798 1.86946 6.59127 1.86248 6.56529C1.68389 5.9011 0.96951 4.70044 0.81643 4.44498C0.799862 4.41733 0.777318 4.3822 0.750285 4.34008C0.527534 3.99299 0 3.171 0 2.14585C0 0.996289 0.841943 0 1.88799 0ZM1.88797 3.65307L3.49532 5.33909L5.10266 3.65307C5.40882 3.32097 5.66396 2.91224 5.66396 2.40132C5.66396 1.78768 5.10266 1.32839 4.56688 1.32839C4.0311 1.32839 3.69942 1.5583 3.49532 1.71158C3.29121 1.5583 2.95953 1.32839 2.42375 1.32839C1.88797 1.32839 1.32667 1.78768 1.32667 2.40132C1.32667 2.91224 1.58181 3.32097 1.88797 3.65307ZM2.117 7.35726C2.10324 7.35726 2.0921 7.36842 2.0921 7.38219V7.79217C2.0921 7.80594 2.10324 7.81709 2.117 7.81709H4.82266C4.83641 7.81709 4.84755 7.80594 4.84755 7.79217V7.38219C4.84755 7.36842 4.83641 7.35726 4.82266 7.35726H2.117ZM2.24518 8.09736C2.24518 8.08359 2.25632 8.07244 2.27007 8.07244H4.66957C4.68333 8.07244 4.69446 8.08359 4.69446 8.09736V8.50734C4.69446 8.52111 4.68333 8.53227 4.66957 8.53227H2.27007C2.25632 8.53227 2.24518 8.52111 2.24518 8.50734V8.09736ZM2.9334 8.73664C2.91965 8.73664 2.90851 8.74779 2.90851 8.76156V9.17154C2.90851 9.18531 2.91965 9.19646 2.9334 9.19646H4.00621C4.01997 9.19646 4.0311 9.18531 4.0311 9.17154V8.76156C4.0311 8.74779 4.01997 8.73664 4.00621 8.73664H2.9334Z" fill="var(--fill-0, #D2D4DA)"/>
</svg>
