<svg preserveAspectRatio="none" width="100%" height="100%" overflow="visible" style="display: block;" viewBox="0 0 32.5772 42.8404" fill="none" xmlns="http://www.w3.org/2000/svg">
<path id="Shape" fill-rule="evenodd" clip-rule="evenodd" d="M8.79822 0C12.698 0 15.4167 1.50735 16.2886 2.26102C17.1605 1.50735 19.8792 0 23.779 0C28.6537 0 32.5772 4.64104 32.5772 9.99608C32.5772 14.7716 30.1189 18.6007 29.0808 20.2175L29.0808 20.2176C28.9548 20.4138 28.8498 20.5774 28.7726 20.7062C28.0592 21.8962 24.7301 27.4892 23.8979 30.5833C23.8653 30.7043 23.8336 30.8287 23.8015 30.9542L23.8015 30.9543V30.9543V30.9544C23.6445 31.5695 23.4807 32.211 23.1845 32.6063C22.8278 33.0823 22.4711 33.3203 21.7578 33.3203H16.7642H15.813H10.8194C10.1061 33.3203 9.74938 33.0823 9.3927 32.6063C9.0965 32.211 8.93272 31.5695 8.77572 30.9544V30.9543V30.9543V30.9542C8.74365 30.8287 8.71186 30.7043 8.67933 30.5833C7.84706 27.4892 4.51801 21.8962 3.80464 20.7062C3.72743 20.5774 3.62237 20.4137 3.4964 20.2175C2.45836 18.6007 0 14.7716 0 9.99608C0 4.64104 3.92353 0 8.79822 0ZM8.79822 17.0171L16.2886 24.8712L23.779 17.0171C25.2057 15.4701 26.3947 13.5661 26.3947 11.1861C26.3947 8.32757 23.779 6.18805 21.2822 6.18805C18.7854 6.18805 17.2398 7.25906 16.2886 7.97307C15.3374 7.25906 13.7918 6.18805 11.295 6.18805C8.79822 6.18805 6.18253 8.32757 6.18253 11.1861C6.18253 13.5661 7.37148 15.4701 8.79822 17.0171ZM9.86537 34.2723C9.80129 34.2723 9.74938 34.3242 9.74938 34.3884V36.2982C9.74938 36.3623 9.80129 36.4143 9.86537 36.4143H22.474C22.5381 36.4143 22.59 36.3623 22.59 36.2982V34.3884C22.59 34.3242 22.5381 34.2723 22.474 34.2723H9.86537ZM10.4627 37.7204C10.4627 37.6563 10.5147 37.6043 10.5787 37.6043H21.7607C21.8247 37.6043 21.8767 37.6563 21.8767 37.7204V39.6302C21.8767 39.6944 21.8247 39.7463 21.7607 39.7463H10.5787C10.5147 39.7463 10.4627 39.6944 10.4627 39.6302V37.7204ZM13.67 40.6983C13.6059 40.6983 13.554 40.7503 13.554 40.8144V42.7243C13.554 42.7884 13.6059 42.8404 13.67 42.8404H18.6694C18.7335 42.8404 18.7854 42.7884 18.7854 42.7243V40.8144C18.7854 40.7503 18.7335 40.6983 18.6694 40.6983H13.67Z" fill="url(#paint0_linear_71_331)"/>
<defs>
<linearGradient id="paint0_linear_71_331" x1="0" y1="0" x2="0" y2="42.8404" gradientUnits="userSpaceOnUse">
<stop stop-color="#FDCF04"/>
<stop offset="1" stop-color="#AB6000"/>
</linearGradient>
</defs>
</svg>
