<svg width="512" height="512" viewBox="0 0 512 512" fill="none" xmlns="http://www.w3.org/2000/svg">
<g clip-path="url(#clip0_2116_622)">
<path d="M422 0C471.706 0 512 40.2944 512 90V422C512 471.706 471.706 512 422 512H90C40.2944 512 0 471.706 0 422V90C0 40.2944 40.2944 0 90 0H422ZM232.836 425.751C232.269 425.751 231.811 426.21 231.811 426.777V443.659C231.811 444.226 232.269 444.686 232.836 444.686H277.027C277.594 444.686 278.053 444.226 278.053 443.659V426.777C278.053 426.21 277.594 425.751 277.027 425.751H232.836ZM205.511 398.401C204.944 398.401 204.485 398.861 204.485 399.428V416.31C204.485 416.877 204.944 417.336 205.511 417.336H304.353C304.919 417.336 305.378 416.877 305.378 416.31V399.428C305.378 398.861 304.919 398.401 304.353 398.401H205.511ZM199.204 368.948C198.638 368.948 198.18 369.408 198.18 369.975V386.856C198.18 387.423 198.638 387.883 199.204 387.883H310.658C311.225 387.883 311.684 387.423 311.684 386.856V369.975C311.684 369.408 311.225 368.948 310.658 368.948H199.204ZM322.193 66C287.722 66 263.689 79.3243 255.982 85.9863C248.276 79.3243 224.243 66 189.771 66C146.682 66 112 107.025 112 154.36C112 196.573 133.731 230.42 142.906 244.712C144.02 246.446 144.948 247.893 145.631 249.031C151.937 259.55 181.364 308.989 188.721 336.339C188.865 336.874 189.007 337.417 189.148 337.964L189.572 339.619C190.96 345.056 192.408 350.727 195.026 354.222C198.179 358.429 201.332 360.533 207.638 360.533H304.327C310.633 360.533 313.786 358.429 316.938 354.222C319.557 350.727 321.005 345.057 322.393 339.62V339.619C322.676 338.509 322.957 337.409 323.244 336.339C330.601 308.989 360.028 259.55 366.334 249.031C366.675 248.462 367.078 247.816 367.534 247.096L369.059 244.712C378.234 230.42 399.965 196.573 399.965 154.36C399.965 107.025 365.283 66.0001 322.193 66ZM300.123 120.699C322.193 120.699 345.314 139.611 345.314 164.879C345.314 185.917 334.805 202.747 322.193 216.422L255.982 285.848L189.771 216.422C177.16 202.747 166.65 185.917 166.65 164.879C166.65 139.611 189.772 120.699 211.842 120.699C233.912 120.699 247.575 130.166 255.982 136.478C264.39 130.166 278.053 120.699 300.123 120.699Z" fill="url(#paint0_linear_2116_622)"/>
</g>
<defs>
<linearGradient id="paint0_linear_2116_622" x1="0" y1="0" x2="0" y2="512" gradientUnits="userSpaceOnUse">
<stop stop-color="#E5BB00"/>
<stop offset="1" stop-color="#AB6000"/>
</linearGradient>
<clipPath id="clip0_2116_622">
<rect width="512" height="512" fill="white"/>
</clipPath>
</defs>
</svg>
