<svg width="2782" height="572" viewBox="0 0 2782 572" fill="none" xmlns="http://www.w3.org/2000/svg">
<path d="M76.0547 412L7.43262 162.575H32.1504L87.29 376.738H87.8086L148.307 162.575H171.987L232.485 376.738H233.004L288.144 162.575H312.861L244.239 412H222.114L160.406 201.467H159.888L98.1797 412H76.0547ZM390.929 415.284C340.456 415.284 309.17 379.504 309.17 322.636V322.463C309.17 266.113 340.975 228.95 389.027 228.95C437.08 228.95 467.329 264.903 467.329 318.66V327.648H332.332C333.023 370.516 356.013 394.888 391.447 394.888C417.894 394.888 436.216 381.578 442.093 362.046L442.438 360.49H465.082L464.736 362.219C458.514 392.986 429.82 415.284 390.929 415.284ZM388.854 249.347C358.26 249.347 335.443 271.299 332.678 309.499H444.34C441.747 270.262 419.622 249.347 388.854 249.347ZM568.151 412V162.575H591.659V390.566H716.631V412H568.151ZM807.316 415.284C758.227 415.111 725.385 379.158 725.385 322.117V321.771C725.385 264.73 758.399 228.95 807.316 228.95C856.061 228.95 889.248 264.558 889.248 321.771V322.117C889.248 379.331 856.233 415.284 807.316 415.284ZM807.489 394.888C842.578 394.888 865.913 367.577 865.913 322.117V321.771C865.913 276.312 842.405 249.347 807.316 249.347C772.228 249.347 748.893 276.484 748.893 321.771V322.117C748.893 367.75 772.055 394.715 807.489 394.888ZM961.093 412L894.199 232.234H918.398L973.02 387.974H973.538L1028.33 232.234H1052.19L985.465 412H961.093ZM1138.9 415.284C1088.42 415.284 1057.14 379.504 1057.14 322.636V322.463C1057.14 266.113 1088.94 228.95 1136.99 228.95C1185.05 228.95 1215.3 264.903 1215.3 318.66V327.648H1080.3C1080.99 370.516 1103.98 394.888 1139.41 394.888C1165.86 394.888 1184.18 381.578 1190.06 362.046L1190.41 360.49H1213.05L1212.7 362.219C1206.48 392.986 1177.79 415.284 1138.9 415.284ZM1136.82 249.347C1106.23 249.347 1083.41 271.299 1080.64 309.499H1192.31C1189.71 270.262 1167.59 249.347 1136.82 249.347Z" fill="white"/>
<path d="M1319.74 412V162.575H1371.94V368.96H1481.01V412H1319.74ZM1533.91 202.85C1518.69 202.85 1506.94 190.923 1506.94 176.576C1506.94 162.229 1518.69 150.303 1533.91 150.303C1549.12 150.303 1560.87 162.229 1560.87 176.576C1560.87 190.923 1549.12 202.85 1533.91 202.85ZM1508.67 412V226.703H1559.14V412H1508.67ZM1679.62 476.301C1628.63 476.301 1596.48 453.312 1591.64 423.581L1591.46 422.025H1640.55L1641.07 423.235C1645.05 432.396 1658.53 440.348 1679.62 440.348C1705.72 440.348 1719.55 426.865 1719.55 406.123V377.775H1718.51C1708.83 397.135 1688.09 409.407 1661.3 409.407C1614.97 409.407 1586.28 374.837 1586.28 317.277V317.104C1586.28 257.989 1615.32 222.9 1662.16 222.9C1688.26 222.9 1708.49 236.729 1718.51 258.335H1719.55V226.703H1770.02V406.814C1770.02 448.126 1735.28 476.301 1679.62 476.301ZM1678.75 372.417C1703.47 372.417 1719.72 351.675 1719.72 318.487V318.314C1719.72 285.3 1703.3 264.73 1678.75 264.73C1653.69 264.73 1637.62 285.127 1637.62 318.314V318.487C1637.62 351.848 1653.52 372.417 1678.75 372.417ZM1804.42 412V162.575H1854.89V258.681H1855.93C1865.43 235.691 1884.97 222.9 1912.8 222.9C1952.9 222.9 1977.79 250.902 1977.79 295.671V412H1927.32V306.042C1927.32 280.114 1914.52 264.73 1891.54 264.73C1869.24 264.73 1854.89 281.67 1854.89 305.869V412H1804.42ZM2083.92 415.803C2042.78 415.803 2023.42 399.9 2023.42 360.145V264.73H1997.67V226.703H2023.42V181.416H2074.41V226.703H2108.29V264.73H2074.41V354.613C2074.41 371.898 2082.19 377.775 2097.4 377.775C2101.9 377.775 2105.18 377.257 2108.29 376.911V413.901C2102.59 414.766 2094.46 415.803 2083.92 415.803ZM2212.35 415.803C2161.01 415.803 2132.49 392.122 2128.51 357.033L2128.34 355.478H2177.6L2177.95 357.033C2181.23 371.553 2192.12 380.022 2212.35 380.022C2231.36 380.022 2242.94 372.59 2242.94 360.663V360.49C2242.94 350.638 2236.72 344.934 2218.57 340.958L2187.11 334.39C2151.16 326.784 2133.01 308.808 2133.01 281.151V280.979C2133.01 245.717 2163.43 222.9 2210.62 222.9C2259.88 222.9 2287.37 249.001 2288.58 281.497V283.226H2242.08L2241.91 281.843C2240.18 268.533 2229.29 258.508 2210.62 258.508C2193.16 258.508 2182.27 266.286 2182.27 278.213V278.386C2182.27 287.893 2188.67 294.115 2207.33 298.091L2238.79 304.832C2277.51 312.956 2293.42 328.167 2293.42 355.478V355.65C2293.42 391.949 2260.05 415.803 2212.35 415.803Z" fill="white"/>
<path fill-rule="evenodd" clip-rule="evenodd" d="M2478.54 13C2528.24 13 2562.89 32.2111 2574.01 41.8167C2585.12 32.2111 2619.77 13 2669.47 13C2731.6 13 2781.6 72.15 2781.6 140.4C2781.6 201.263 2750.27 250.065 2737.04 270.672L2737.04 270.673C2735.44 273.173 2734.1 275.258 2733.11 276.9C2724.02 292.067 2681.59 363.35 2670.99 402.783C2670.57 404.326 2670.17 405.911 2669.76 407.512L2669.76 407.512V407.512V407.513C2667.76 415.352 2665.67 423.528 2661.89 428.567C2657.35 434.633 2652.8 437.667 2643.71 437.667H2580.07H2567.94H2504.3C2495.21 437.667 2490.66 434.633 2486.12 428.567C2482.34 423.528 2480.26 415.352 2478.25 407.513V407.512V407.512V407.512C2477.85 405.911 2477.44 404.326 2477.03 402.783C2466.42 363.35 2423.99 292.067 2414.9 276.9C2413.91 275.258 2412.57 273.173 2410.97 270.672C2397.74 250.065 2366.41 201.263 2366.41 140.4C2366.41 72.15 2416.41 13 2478.54 13ZM2478.54 229.883L2574.01 329.983L2669.47 229.883C2687.65 210.167 2702.81 185.9 2702.81 155.567C2702.81 119.135 2669.47 91.8667 2637.65 91.8667C2605.83 91.8667 2586.13 105.517 2574.01 114.617C2561.88 105.517 2542.18 91.8667 2510.36 91.8667C2478.54 91.8667 2445.2 119.135 2445.2 155.567C2445.2 185.9 2460.36 210.167 2478.54 229.883ZM2492.14 449.8C2491.33 449.8 2490.66 450.462 2490.66 451.28V475.62C2490.66 476.438 2491.33 477.1 2492.14 477.1H2652.84C2653.66 477.1 2654.32 476.438 2654.32 475.62V451.28C2654.32 450.462 2653.66 449.8 2652.84 449.8H2492.14ZM2499.76 493.746C2499.76 492.929 2500.42 492.267 2501.23 492.267H2643.75C2644.56 492.267 2645.23 492.929 2645.23 493.746V518.087C2645.23 518.904 2644.56 519.567 2643.75 519.567H2501.23C2500.42 519.567 2499.76 518.904 2499.76 518.087V493.746ZM2540.63 531.7C2539.82 531.7 2539.15 532.362 2539.15 533.18V557.52C2539.15 558.338 2539.82 559 2540.63 559H2604.35C2605.17 559 2605.83 558.338 2605.83 557.52V533.18C2605.83 532.362 2605.17 531.7 2604.35 531.7H2540.63Z" fill="white"/>
</svg>
